PathFileType	4	(X/Y/Z)	/Users/niels/Desktop/University/Third Semester/Perception and Action/Exam/Gymnastics Motion Tracking/Code for Gym Tracking/Analyzed Data/Backflip/id1_3_pettlep_Sports2D/id1_3_pettlep_Sports2D_px_person00.trc
DataRate	CameraRate	NumFrames	NumMarkers	Units	OrigDataRate	OrigDataStartFrame	OrigNumFrames
59.90876837303599	59.90876837303599	10	22	m	59.90876837303599	74	198
Frame#	Time	Hip			RHip			RKnee			RAnkle			RBigToe			RSmallToe			RHeel			LHip			LKnee			LAnkle			LBigToe			LSmallToe			LHeel			Neck			Head			Nose			RShoulder			RElbow			RWrist			LShoulder			LElbow			LWrist		
		X1	Y1	Z1	X2	Y2	Z2	X3	Y3	Z3	X4	Y4	Z4	X5	Y5	Z5	X6	Y6	Z6	X7	Y7	Z7	X8	Y8	Z8	X9	Y9	Z9	X10	Y10	Z10	X11	Y11	Z11	X12	Y12	Z12	X13	Y13	Z13	X14	Y14	Z14	X15	Y15	Z15	X16	Y16	Z16	X17	Y17	Z17	X18	Y18	Z18	X19	Y19	Z19	X20	Y20	Z20	X21	Y21	Z21	X22	Y22	Z22
74	1.2352115059221658	1.0727243663133932	-0.5432453586959407	0.0	1.0685269483744402	-0.5462935172301027	0.0	1.0652086292287704	-0.6411701425957061	0.0	1.048633859049235	-0.7295411805905885	0.0	1.0810100682221435	-0.7359098269908548	0.0	1.0694569351415948	-0.739088886187244	0.0	1.041376014508856	-0.7368898972061628	0.0	1.078020700649385	-0.5466952410880599	0.0	1.0758654402618033	-0.6395978938271749	0.0	1.0546461795168625	-0.7259356567526728	0.0	1.0873500597334715	-0.734606034640273	0.0	1.0801244857338246	-0.7310120860628931	0.0	1.0429017219977699	-0.7333507476556294	0.0	1.0894102502121643	-0.4055121687045588	0.0	1.110202464345022	-0.35081391498651704	0.0	1.1233120361347737	-0.38464895576203734	0.0	1.079719227099785	-0.4234971003812107	0.0	1.0544716702651873	-0.4798122767135763	0.0	1.037031417485488	-0.5288879192573601	0.0	1.083573212501515	-0.4228269196340423	0.0	1.0600588373311755	-0.4838733439247935	0.0	1.0490610889332077	-0.5334591427758736	0.0
75	1.2519035532994922	1.0727619196398146	-0.5429517277863454	0.0	1.0682239686912842	-0.5459287597702492	0.0	1.0648041273508368	-0.6408460109871419	0.0	1.0487191135376952	-0.7290782618268123	0.0	1.0804068449298323	-0.7352685478219941	0.0	1.06963088133869	-0.7382544193726109	0.0	1.0417901816061308	-0.7365142688297159	0.0	1.0784490339418331	-0.5463042315441969	0.0	1.0751661532399732	-0.6393415277926942	0.0	1.0544946989021176	-0.7258051480932656	0.0	1.0865096059587342	-0.7346299034329357	0.0	1.0799451441683678	-0.7312896324068713	0.0	1.042927092115458	-0.7334435008569243	0.0	1.0901289447235503	-0.40533405340194917	0.0	1.1124415772543463	-0.35118734195507983	0.0	1.1246758766991296	-0.38504252979308307	0.0	1.0794034186851333	-0.4223665854330148	0.0	1.0500928292417515	-0.4743643423924045	0.0	1.027915716227346	-0.5194620543657698	0.0	1.08473640731363	-0.42248033073061025	0.0	1.0583708339379363	-0.4808166384752343	0.0	1.0427891117326487	-0.5267926848885167	0.0
76	1.2685956006768189	1.0724656589844999	-0.5424081416031843	0.0	1.0675900625269124	-0.5451791100789477	0.0	1.0642377604908204	-0.6402691160790909	0.0	1.0487623938069615	-0.7284140924867817	0.0	1.079656242049643	-0.7346147610437775	0.0	1.0695280258596858	-0.7374294562003718	0.0	1.0421394863547009	-0.7359559605034878	0.0	1.0785769099759406	-0.5455489269962419	0.0	1.0744262292383817	-0.6388262138175267	0.0	1.0543191272522316	-0.7254796585190654	0.0	1.0855544820133807	-0.7345415194269115	0.0	1.0796471683920035	-0.7314060828211961	0.0	1.0429914256887527	-0.7333716845319332	0.0	1.0909312637581265	-0.4050929739795732	0.0	1.1151115802528224	-0.3515410846809058	0.0	1.126240737598723	-0.3854445501106832	0.0	1.0792521432914235	-0.42098767502528794	0.0	1.0462266757621794	-0.46830529537783294	0.0	1.0196923476299886	-0.5090248148749869	0.0	1.0859074109236608	-0.4219953924781517	0.0	1.0568522331335775	-0.4774009914268118	0.0	1.0372404400045288	-0.5194923506913905	0.0
77	1.2852876480541455	1.0718329470887262	-0.5416332328223508	0.0	1.0666142194515704	-0.5440527965306915	0.0	1.063521263559653	-0.6394436532828834	0.0	1.048764751616593	-0.7275634411912977	0.0	1.0787813552863077	-0.7339215441475389	0.0	1.0691695888385209	-0.73659287227009	0.0	1.0424147588525403	-0.7351845317777909	0.0	1.0783811443865001	-0.544440456823608	0.0	1.0736552081092392	-0.6380524174517102	0.0	1.0541454584124228	-0.7249579621975418	0.0	1.084553726250661	-0.7342961100169062	0.0	1.0792417133194463	-0.7313032172413401	0.0	1.0431241961039648	-0.7330693791787699	0.0	1.0917972559729088	-0.40482213004208795	0.0	1.1182163788632367	-0.35190287228705547	0.0	1.1279921270262148	-0.3858798323097866	0.0	1.0792612022219155	-0.4193859090187802	0.0	1.0428762472441169	-0.46175032320050263	0.0	1.0124161177061757	-0.4977747399379661	0.0	1.0870997662218376	-0.42139165689187874	0.0	1.0555444277689807	-0.47363075819668393	0.0	1.032548494313035	-0.5116788518192787	0.0
78	1.301979695431472	1.0708631466581708	-0.5406398589324029	0.0	1.0652917089203644	-0.5425716055163885	0.0	1.0626829889462492	-0.6383817365808295	0.0	1.0487340277268793	-0.7265441854288068	0.0	1.0778371571167744	-0.7331924443874044	0.0	1.0686245349063084	-0.7357505234917022	0.0	1.0426118508823075	-0.7342151151362044	0.0	1.0778359830509245	-0.5430030082195481	0.0	1.0728645452907561	-0.6370328027483962	0.0	1.0539974063871698	-0.7242428308924309	0.0	1.083576035322994	-0.733891816589743	0.0	1.0787573756351228	-0.7309768108598744	0.0	1.0433423389059	-0.7325263485640265	0.0	1.0927137156728801	-0.40455331451312593	0.0	1.1217281219126969	-0.352310718976232	0.0	1.1299145255993253	-0.3863745851921014	0.0	1.0794225400631636	-0.41760767799463	0.0	1.0400311626911205	-0.4548355491104026	0.0	1.0061190469201664	-0.4859195114949114	0.0	1.0883204370081438	-0.42069198206156627	0.0	1.0544630206935388	-0.46949218939392773	0.0	1.028745656422878	-0.503446816521438	0.0
79	1.3186717428087986	1.0695524139700552	-0.5394373140358226	0.0	1.0636260206011907	-0.5407686029818412	0.0	1.0617699260257312	-0.6370969712061462	0.0	1.048684336389917	-0.7253672059071835	0.0	1.0769057849456347	-0.7324361260463417	0.0	1.067995016840443	-0.7349186495791248	0.0	1.0427280365131582	-0.7330844268468087	0.0	1.076913474223156	-0.5412708770010562	0.0	1.0720708949620081	-0.6357830854307406	0.0	1.0538923095445178	-0.7233311865985478	0.0	1.082681633351816	-0.7333381534505998	0.0	1.0782324606763984	-0.7304403963867973	0.0	1.0436461031169142	-0.731754025605829	0.0	1.0936757563097708	-0.40431699906736035	0.0	1.125592487886059	-0.352814737967332	0.0	1.1319897508547414	-0.3869571643909724	0.0	1.0797295747358429	-0.4157175311341105	0.0	1.037676180703833	-0.4477044014201491	0.0	1.0008107997799784	-0.47367074399080794	0.0	1.089564776526914	-0.4199160300026677	0.0	1.0535830429181454	-0.4649516718638472	0.0	1.0257751241847637	-0.4948619570140043	0.0
80	1.335363790186125	1.0678950791783253	-0.5380323533487947	0.0	1.061627009111898	-0.5386824057513658	0.0	1.0608430242264404	-0.6355995650418784	0.0	1.0486306011204276	-0.7240376502464553	0.0	1.0760769120185412	-0.731639355534979	0.0	1.0673911244411964	-0.7340921581884537	0.0	1.0427582818698118	-0.7318222144320775	0.0	1.0755937501901087	-0.5392824956269822	0.0	1.0712969700430364	-0.6343141861380173	0.0	1.0538390210027984	-0.7222160922625614	0.0	1.0819147821621897	-0.7326286842758974	0.0	1.0777090156978646	-0.7296937904753218	0.0	1.0440178054845506	-0.7307585372081072	0.0	1.094683303021684	-0.4041435997630203	0.0	1.1297372743890526	-0.3534744206256545	0.0	1.1341972960878182	-0.3876575001143835	0.0	1.0801808674633453	-0.41378905253484	0.0	1.0357946808578073	-0.4404958991871362	0.0	0.9964751966355775	-0.46123122826599805	0.0	1.0908218792901434	-0.41908078839416746	0.0	1.0528562634275835	-0.4599724225517877	0.0	1.0235207183923576	-0.4859661435519879	0.0
81	1.3520558375634517	1.0658885329924557	-0.5364293689502618	0.0	1.0593088865704854	-0.5363536114159042	0.0	1.059970724388583	-0.633896662564853	0.0	1.0485827382552604	-0.7225661310992607	0.0	1.0754253203560882	-0.7307779100831944	0.0	1.0669051054601686	-0.7332479406362049	0.0	1.042691634147157	-0.7304543100264854	0.0	1.0738735722431472	-0.537077519473441	0.0	1.0705705266225842	-0.6326311482187821	0.0	1.0538373304991955	-0.7208983060518107	0.0	1.0812996898996339	-0.7317483563990376	0.0	1.07722784012537	-0.7287333888253766	0.0	1.0444205185266118	-0.7295520877156375	0.0	1.0957357556289964	-0.4040648398975956	0.0	1.1340781400928777	-0.354352181237872	0.0	1.136515542337693	-0.3885063836637824	0.0	1.0807788555948237	-0.41189466698631166	0.0	1.0343631392683952	-0.433338976952521	0.0	0.9930660540096053	-0.4487844129765809	0.0	1.092081570853175	-0.41820824516129346	0.0	1.0522408725526546	-0.454543458325232	0.0	1.021841234085561	-0.4768023777464727	0.0
82	1.3687478849407781	1.063538146595597	-0.5346347188121382	0.0	1.0566925376369465	-0.533825551910084	0.0	1.059223397276116	-0.6319914550768146	0.0	1.0485450453942782	-0.7209688235038004	0.0	1.0749951481560616	-0.7298301662934159	0.0	1.0665954430592757	-0.732359131102222	0.0	1.042515434545365	-0.7290046313213759	0.0	1.0717693733529465	-0.53469811150329	0.0	1.069925912655093	-0.6307323717804136	0.0	1.0538831307894525	-0.7193889820919891	0.0	1.0808455849431577	-0.7306845888716798	0.0	1.0768274562361695	-0.7275637349378838	0.0	1.0448061521563887	-0.7281604410281097	0.0	1.0968271549340167	-0.4041147311566299	0.0	1.138526678915565	-0.3555055143973503	0.0	1.1389207539864696	-0.38953250616569607	0.0	1.081526266758744	-0.4101015998397913	0.0	1.0333478221778007	-0.42635101575085965	0.0	0.9905115238575534	-0.4364930685422004	0.0	1.0933354075064674	-0.41733188476664923	0.0	1.0517102866564008	-0.4486980224922685	0.0	1.0205922514346601	-0.4674424337970339	0.0
83	1.3854399323181048	1.0608614108395624	-0.5326649907860931	0.0	1.0538095801790384	-0.531149081514133	0.0	1.0586667032476194	-0.6298815983372561	0.0	1.0485191095461972	-0.719257822762882	0.0	1.07479743001413	-0.7287737721898627	0.0	1.0664869738387561	-0.7313945112378683	0.0	1.0422253538611563	-0.7274830124908347	0.0	1.069317430074995	-0.5321940772260738	0.0	1.0694065842025142	-0.6286097366183572	0.0	1.0539750048941614	-0.7177013383430274	0.0	1.0805569583710524	-0.7294224995410253	0.0	1.0765471050629296	-0.7261885427053767	0.0	1.0451296203685712	-0.7266102936553375	0.0	1.0979469717908945	-0.40432707792354916	0.0	1.1429946428586308	-0.3569813025775193	0.0	1.1413851527022754	-0.39075720845959566	0.0	1.0824220534299522	-0.4084729932279351	0.0	1.0327101821242903	-0.4196391161002548	0.0	0.9887289053249657	-0.4245051708225689	0.0	1.094575115125857	-0.41649839458423676	0.0	1.0512442128889565	-0.4425248464950399	0.0	1.0196393159132346	-0.4579994157123623	0.0
